:SAMPLES-PER-SECOND 30
:FULLY-SPECIFIED
:DEGREES
207
root  67.5173 35.8064 3.36958 36.827 11.9403 -1.60606
RightUpLeg  -68.9468 -11.6769 -2.22086
RightLeg  37.5245 -1.25751 -1.30496
RightFoot  -1.73923 -0.515097 5.98578
RightToes  0.00048216 0.542163 -0.142577
Spine  72.2845 -4.99808 7.67992
Spine1  10.7032 2.72263 -3.75795
HEad  -33.9695 -14.1778 12.706
LeftShoulder1  2.00402 -21.3804 0.45236
LeftArm  -83.9226 -57.3845 30.0672
LeftForeArm  -8.06868 -9.06209 4.20694
LeftHand  -0.25398 0.0180481 5.50724
RightShoulder  2.25073 13.5074 5.46275
RightArm  -69.6232 57.5827 -13.7855
RightForeArm  -21.4744 23.1605 5.94848
RightHand  -1.9927 10.8464 -14.662
LeftUpLeg  -79.1911 25.6239 -31.9924
LeftLeg  41.8563 -0.903291 -0.464835
LeftFoot  -7.6169 -0.313103 11.007
LeftToes  1.06243e-005 4.65856e-005 -8.18505e-006
208
root  67.2535 35.7737 3.19346 36.0281 11.2885 -1.17624
RightUpLeg  -68.8643 -11.1496 -2.71331
RightLeg  38.1618 -1.29496 -1.36347
RightFoot  -1.58355 -0.47579 5.44287
RightToes  0.00048216 0.542163 -0.142577
Spine  72.1801 -4.95313 7.71661
Spine1  10.6248 2.85404 -4.01303
HEad  -33.258 -13.891 12.7263
LeftShoulder1  2.00635 -22.0128 0.672688
LeftArm  -82.6449 -57.6236 30.7694
LeftForeArm  -8.04523 -6.40607 4.18392
LeftHand  -0.25398 0.0180481 5.50724
RightShoulder  2.29248 13.4892 5.75688
RightArm  -69.5584 58.5588 -15.2146
RightForeArm  -19.7126 20.0629 5.19649
RightHand  -2.13964 11.4385 -15.1571
LeftUpLeg  -78.9611 26.4045 -32.3358
LeftLeg  41.905 -0.938449 -0.499956
LeftFoot  -7.10373 -0.366752 11.0349
LeftToes  1.06243e-005 4.65856e-005 -8.18505e-006
209
root  66.9255 35.797 2.9743 34.5481 10.9466 -0.941594
RightUpLeg  -67.9592 -10.5113 -2.97513
RightLeg  38.5279 -1.51955 -1.57097
RightFoot  -1.35995 -0.419003 4.68848
RightToes  0.00048216 0.542163 -0.142577
Spine  72.1211 -4.96691 7.88178
Spine1  10.5998 2.9255 -3.93198
HEad  -32.4116 -13.7452 12.6233
LeftShoulder1  2.09634 -22.5153 0.455671
LeftArm  -81.4363 -58.2959 31.6003
LeftForeArm  -5.27092 -3.83933 3.96226
LeftHand  -0.25398 0.0180481 5.50724
RightShoulder  2.24339 13.3153 5.58511
RightArm  -68.681 60.247 -16.5699
RightForeArm  -18.4011 16.2813 4.53039
RightHand  -2.67646 11.8834 -18.3011
LeftUpLeg  -78.0198 27.4353 -31.954
LeftLeg  41.6644 -0.969878 -0.523845
LeftFoot  -6.32073 -0.445947 11.0074
LeftToes  1.06243e-005 4.65856e-005 -8.18505e-006
210
root  66.5089 35.8658 2.73212 32.8698 10.7343 -0.797109
RightUpLeg  -66.7131 -9.86032 -2.904
RightLeg  38.5422 -1.71889 -1.742
RightFoot  -1.08902 -0.342179 3.73021
RightToes  0.00048216 0.542163 -0.142577
Spine  71.718 -4.94013 8.16547
Spine1  10.5847 3.02793 -3.68602
HEad  -31.7211 -13.8431 12.3381
LeftShoulder1  2.23244 -23.1666 0.105396
LeftArm  -78.8476 -59.4568 30.8041
LeftForeArm  -1.00878 -1.41299 3.40051
LeftHand  -0.25398 0.0180481 5.50724
RightShoulder  2.14215 12.9067 5.26681
RightArm  -67.8813 62.634 -18.32
RightForeArm  -17.3295 12.0469 4.29195
RightHand  -3.35922 11.8782 -22.7773
LeftUpLeg  -76.7714 28.608 -31.2639
LeftLeg  41.0147 -1.1278 -0.654012
LeftFoot  -5.34809 -0.538448 10.8664
LeftToes  1.06243e-005 4.65856e-005 -8.18505e-006
211
root  66.0088 35.9649 2.48879 31.46 10.4536 -0.493815
RightUpLeg  -65.5984 -9.34978 -2.65862
RightLeg  38.2186 -1.72688 -1.73068
RightFoot  -0.73099 -0.247417 2.61053
RightToes  0.00048216 0.542163 -0.142577
Spine  70.6346 -4.91221 8.43469
Spine1  10.617 3.08418 -3.65148
HEad  -31.2146 -14.2365 12.2578
LeftShoulder1  2.45992 -23.8652 -0.586115
LeftArm  -74.1551 -61.1008 26.5424
LeftForeArm  1.47643 0.978999 2.713
LeftHand  -0.25398 0.0180481 5.50724
RightShoulder  2.0993 12.6599 5.19424
RightArm  -67.459 65.0992 -19.7359
RightForeArm  -16.9892 8.18703 4.42849
RightHand  -3.69201 11.3662 -25.6299
LeftUpLeg  -75.4676 29.6581 -30.6952
LeftLeg  39.855 -1.33054 -0.800153
LeftFoot  -4.10391 -0.650636 10.6454
LeftToes  1.06243e-005 4.65856e-005 -8.18505e-006
212
root  65.404 36.1257 2.2663 29.9865 10.2135 0.00278637
RightUpLeg  -64.1554 -9.02089 -2.29682
RightLeg  37.5294 -1.63188 -1.61407
RightFoot  -0.378796 -0.135515 1.38392
RightToes  0.00048216 0.542163 -0.142577
Spine  69.3513 -4.92541 8.57518
Spine1  10.6574 3.03033 -3.84506
HEad  -30.6651 -15.14 12.9069
LeftShoulder1  2.92771 -24.3447 -2.30122
LeftArm  -66.6695 -62.5404 17.5568
LeftForeArm  1.53629 2.8312 2.13287
LeftHand  -0.25398 0.0180481 5.50724
RightShoulder  2.20952 12.7221 5.90141
RightArm  -66.6768 67.2662 -18.7899
RightForeArm  -17.7718 5.98005 4.55514
RightHand  -3.75599 10.9019 -26.7434
LeftUpLeg  -73.5744 30.666 -29.8752
LeftLeg  38.0149 -1.46421 -0.847187
LeftFoot  -2.40399 -0.777137 10.1091
LeftToes  1.06243e-005 4.65856e-005 -8.18505e-006
